<svg width="314" height="381" viewBox="0 0 314 381" fill="none" xmlns="http://www.w3.org/2000/svg">
<path d="M125.282 348.027C125.282 348.027 118.684 357.794 125.88 365.916C133.077 374.039 125.321 378.484 125.321 378.484L96.0701 349.188L110.687 334.552L125.282 348.027Z" fill="#367CFF"/>
<path d="M126.837 147.118C126.837 147.118 126.967 143.637 126.937 151.533C126.892 164.645 128.137 199.296 127.262 243.955C126.564 279.654 101.75 340.914 101.75 340.914L124.129 357.001C124.129 357.001 157.793 302.316 163.135 248.18C165.87 220.469 171.462 145.92 171.462 145.92L126.837 147.118Z" fill="#262626"/>
<path d="M195.894 358.346C195.894 358.346 198.124 369.925 208.949 370.57C219.774 371.215 217.426 379.853 217.426 379.853H176.059V359.153L195.894 358.346Z" fill="#367CFF"/>
<path d="M201.151 149.405C201.151 149.405 204.547 250.066 204.193 254.986L201.002 364.973L174.268 365.468L169.957 251.008C169.957 251.008 167.134 219.435 159.514 190.116C155.617 175.069 153.272 159.662 152.515 144.135L201.151 149.405Z" fill="#262626"/>
<path d="M165.884 220.774L168.113 186.631C168.113 186.631 170.403 200.825 170.403 213.06C170.403 219.04 169.173 242.716 169.173 242.716L165.884 220.774Z" fill="#0A0A0A"/>
<path d="M126.545 147.115L126.455 147.12C126.455 147.12 126.518 145.403 126.545 147.115Z" fill="#333333"/>
<path d="M126.655 147.115L126.565 147.12C126.565 147.12 126.629 145.403 126.655 147.115Z" fill="#333333"/>
<path d="M144.159 19.9519C144.159 19.9519 142.005 31.4463 138.9 35.3386C129.962 46.5433 126.166 59.898 132.821 67.9095C139.476 75.9209 187.326 81.75 192.904 65.8244C197.601 52.4164 191.227 50.151 190.989 38.5978C190.882 33.3705 190.184 22.3526 190.184 22.3526" fill="#0A0A0A"/>
<path d="M182.977 59.7499C182.894 59.7394 181.97 75.0817 164.172 73.7457C151.851 72.8213 147.458 59.7284 147.175 59.7284C148.503 59.4457 150.741 59.0342 151.331 58.7191C153.271 57.6748 155.671 56.5886 156.297 52.8146C156.657 50.6397 156.047 39.5129 156.234 37.3125L175.147 41.5405C174.884 46.188 173.034 56.9622 179.516 58.8699C180.597 59.1845 181.757 59.4747 182.977 59.7499Z" fill="#E98862"/>
<path opacity="0.52" d="M175.411 54.4655C175.115 53.5094 174.924 52.5237 174.842 51.526C174.634 49.2488 174.676 46.9558 174.966 44.6876C171.122 44.1677 167.501 42.5787 164.514 40.1011C164.165 41.3995 162.232 47.0763 162.769 48.3108C163.777 50.6446 168.53 54.4655 175.411 54.4655Z" fill="#0C0C0C"/>
<path d="M172.056 50.7585C164.566 50.5897 155.34 46.4765 154.535 36.3636L153.808 27.2389C153.002 17.1259 157.652 8.50413 167.159 7.74404C176.666 6.98444 184.426 14.6144 185.231 24.7274L185.553 28.7671C185.862 32.6475 185.419 51.0601 172.056 50.7585Z" fill="#E98862"/>
<path d="M180.101 29.4404C180.75 29.4404 181.276 28.9136 181.276 28.2638C181.276 27.6139 180.75 27.0872 180.101 27.0872C179.452 27.0872 178.926 27.6139 178.926 28.2638C178.926 28.9136 179.452 29.4404 180.101 29.4404Z" fill="#0C0C0C"/>
<path d="M169.405 29.4404C170.053 29.4404 170.579 28.9136 170.579 28.2638C170.579 27.6139 170.053 27.0872 169.405 27.0872C168.756 27.0872 168.23 27.6139 168.23 28.2638C168.23 28.9136 168.756 29.4404 169.405 29.4404Z" fill="#0C0C0C"/>
<path opacity="0.52" d="M176.482 37.3353H176.501C176.886 37.3015 177.269 37.2466 177.648 37.1709C178.215 37.0536 178.964 36.8388 178.923 36.3334C178.878 35.7571 176.807 29.6659 176.57 28.9732C176.549 28.9139 176.505 28.8655 176.448 28.8383C176.391 28.8111 176.326 28.8072 176.266 28.8276C176.207 28.848 176.157 28.891 176.129 28.9473C176.101 29.0036 176.096 29.0689 176.115 29.129C176.999 31.7229 178.413 35.9839 178.444 36.3704C178.363 36.5402 177.418 36.7769 176.462 36.8533C176.4 36.8589 176.343 36.888 176.302 36.9345C176.262 36.981 176.24 37.0415 176.243 37.1033C176.245 37.1651 176.271 37.2236 176.316 37.2667C176.36 37.3098 176.419 37.3342 176.481 37.3348L176.482 37.3353Z" fill="#0C0C0C"/>
<path opacity="0.52" d="M174.928 39.7431C173.387 39.7717 171.874 40.1626 170.512 40.8842C170.482 40.8976 170.456 40.9168 170.434 40.9407C170.412 40.9647 170.395 40.9929 170.384 41.0236C170.373 41.0542 170.368 41.0868 170.37 41.1193C170.372 41.1518 170.381 41.1835 170.396 41.2126C170.41 41.2417 170.431 41.2675 170.455 41.2885C170.48 41.3095 170.509 41.3252 170.54 41.3348C170.571 41.3443 170.604 41.3475 170.636 41.344C170.669 41.3405 170.7 41.3306 170.728 41.3147C173.67 39.8304 176.425 39.8439 178.7 41.3531C178.745 41.3852 178.793 41.4147 178.842 41.4415C178.899 41.4666 178.963 41.4686 179.022 41.4473C179.08 41.426 179.128 41.383 179.155 41.3272C179.183 41.2714 179.187 41.2072 179.169 41.1479C179.15 41.0886 179.109 41.0389 179.055 41.009C179.036 40.9991 179.005 40.9786 178.966 40.9511C177.77 40.155 176.364 39.7344 174.928 39.7431Z" fill="#0C0C0C"/>
<path d="M146.018 29.5501L154.535 28.9183C161.137 27.0381 164.23 16.2793 164.23 16.2793C164.23 16.2793 171.106 24.609 190.184 22.3541C190.184 22.3541 189.251 -4.05501 160.93 0.536042C151.798 2.01678 144.468 10.281 143.973 22.3307C143.626 30.7731 146.018 29.5501 146.018 29.5501Z" fill="#0A0A0A"/>
<path d="M155.37 39.3975C152.481 39.6282 149.893 36.7197 149.662 33.8261C149.431 30.9326 151.646 29.1497 154.536 28.9185L156.181 30.7388L157.856 39.1987L155.37 39.3975Z" fill="#E98862"/>
<path d="M178.788 24.4196C179.671 23.9744 180.658 23.7757 181.645 23.8443C182.131 23.8749 182.609 23.9785 183.064 24.1514C183.515 24.3197 183.942 24.544 184.337 24.8191C184.393 24.8544 184.434 24.9108 184.449 24.9759C184.464 25.0409 184.453 25.1093 184.417 25.166C184.382 25.2227 184.326 25.263 184.261 25.2781C184.196 25.2933 184.128 25.2819 184.071 25.2466L184.054 25.2366C183.687 25.0036 183.292 24.8178 182.878 24.6838C182.47 24.5492 182.044 24.477 181.614 24.4696C180.761 24.45 179.918 24.6568 179.171 25.0688L179.146 25.0828C179.06 25.1326 178.956 25.1458 178.86 25.1194C178.763 25.0931 178.681 25.0293 178.631 24.9422C178.581 24.8552 178.568 24.7519 178.595 24.6551C178.621 24.5583 178.685 24.4759 178.771 24.4261L178.788 24.4196Z" fill="#0C0C0C"/>
<path d="M171.15 25.3686C170.348 25.0778 169.484 25.0044 168.645 25.1559C168.221 25.2296 167.811 25.3668 167.428 25.5629C167.04 25.7594 166.678 26.0039 166.351 26.2905L166.337 26.303C166.312 26.3247 166.283 26.3412 166.251 26.3516C166.22 26.362 166.187 26.3661 166.154 26.3638C166.121 26.3614 166.089 26.3525 166.059 26.3377C166.03 26.3228 166.004 26.3023 165.982 26.2773C165.96 26.2523 165.944 26.2232 165.933 26.1918C165.923 26.1604 165.919 26.1273 165.921 26.0943C165.924 26.0613 165.933 26.0291 165.947 25.9995C165.962 25.97 165.983 25.9436 166.008 25.922C166.355 25.5879 166.743 25.2988 167.163 25.0615C167.586 24.8204 168.043 24.6443 168.518 24.5391C169.482 24.319 170.488 24.3628 171.429 24.666C171.522 24.6995 171.598 24.7679 171.641 24.8565C171.684 24.9451 171.69 25.047 171.66 25.1405C171.629 25.2341 171.563 25.3119 171.475 25.3575C171.388 25.403 171.287 25.4128 171.193 25.3846L171.178 25.3791L171.15 25.3686Z" fill="#0C0C0C"/>
<path d="M154.565 28.8143L154.507 28.5736C165.499 25.9123 164.031 15.2325 164.015 15.1246L164.259 15.0876C164.275 15.1975 165.779 26.0986 154.565 28.8143Z" fill="#0C0C0C"/>
<path opacity="0.1" d="M168.895 37.2544C170.131 37.2544 171.133 36.5183 171.133 35.6104C171.133 34.7024 170.131 33.9663 168.895 33.9663C167.659 33.9663 166.657 34.7024 166.657 35.6104C166.657 36.5183 167.659 37.2544 168.895 37.2544Z" fill="#0C0C0C"/>
<path opacity="0.1" d="M182.196 35.2174C182.196 36.1243 183.2 36.86 184.436 36.862C184.65 36.8617 184.863 36.8395 185.072 36.7955C185.255 35.7363 185.381 34.7115 185.463 33.7586C185.135 33.6332 184.786 33.5706 184.435 33.5739C183.199 33.5719 182.198 34.308 182.196 35.2174Z" fill="#0C0C0C"/>
<path d="M205.09 93.5305C204.529 100.127 201.802 141.28 201.264 149.405H126.979C126.559 142.076 124.675 110.034 123.084 95.7039C121.565 82.0297 118.585 75.1838 120.769 71.1411C124.339 64.5339 134.093 60.7165 140.744 59.8145C144.806 59.2652 150.917 58.8687 150.917 58.8687C150.917 58.8687 151.434 69.3482 163.767 69.9315C180.556 70.7246 179.435 58.8687 179.518 58.8687C182.238 58.8687 197.775 60.5931 201.577 62.8499C211.933 68.9931 206.28 79.5541 205.09 93.5305Z" fill="#367CFF"/>
<path d="M261.552 105.591C261.638 105.355 261.77 105.138 261.942 104.955C262.114 104.772 262.321 104.626 262.551 104.526C262.781 104.426 263.029 104.373 263.279 104.372C263.53 104.371 263.779 104.422 264.009 104.52C264.449 104.726 264.795 105.091 264.977 105.542C265.158 105.993 265.162 106.496 264.987 106.95L264.139 109.297L269.479 103.843C270.143 103.144 271.404 102.714 272.136 103.511C272.771 104.116 274.238 104.303 274.476 105.437C274.484 105.443 274.469 115.825 273.854 116.474C271.242 119.221 264.928 119.753 261.405 118.358L255.861 116.161L261.552 105.591Z" fill="#E98862"/>
<g opacity="0.1">
<path d="M261.552 105.591C261.638 105.355 261.77 105.138 261.942 104.955C262.114 104.772 262.321 104.626 262.551 104.526C262.781 104.426 263.029 104.373 263.279 104.372C263.53 104.371 263.779 104.422 264.009 104.52C264.449 104.726 264.795 105.091 264.977 105.542C265.158 105.993 265.162 106.496 264.987 106.95L264.139 109.297L269.479 103.843C270.143 103.144 271.404 102.714 272.136 103.511C272.771 104.116 274.238 104.303 274.476 105.437C274.484 105.443 274.469 115.825 273.854 116.474C271.242 119.221 264.928 119.753 261.405 118.358L255.861 116.161L261.552 105.591Z" fill="#0C0C0C"/>
</g>
<path d="M284.56 147.903L189.283 162.165C187.47 162.437 185.618 162.216 183.919 161.525C182.221 160.835 180.739 159.701 179.628 158.241C178.517 156.781 177.817 155.049 177.602 153.226C177.388 151.403 177.665 149.556 178.407 147.877L214.81 65.4588C215.508 63.8786 216.594 62.5008 217.966 61.4533C219.338 60.4058 220.952 59.7226 222.659 59.4672C224.365 59.2117 226.108 59.3923 227.726 59.9922C229.344 60.592 230.785 61.5917 231.914 62.8983L290.789 131.054C291.988 132.442 292.793 134.127 293.12 135.934C293.447 137.74 293.284 139.601 292.647 141.322C292.011 143.044 290.925 144.563 289.502 145.72C288.08 146.878 286.373 147.631 284.56 147.903Z" fill="#367CFF"/>
<path opacity="0.48" d="M284.56 147.903L189.283 162.165C187.47 162.437 185.618 162.216 183.919 161.525C182.221 160.835 180.739 159.701 179.628 158.241C178.517 156.781 177.817 155.049 177.602 153.226C177.388 151.403 177.665 149.556 178.407 147.877L214.81 65.4588C215.508 63.8786 216.594 62.5008 217.966 61.4533C219.338 60.4058 220.952 59.7226 222.659 59.4672C224.365 59.2117 226.108 59.3923 227.726 59.9922C229.344 60.592 230.785 61.5917 231.914 62.8983L290.789 131.054C291.988 132.442 292.793 134.127 293.12 135.934C293.447 137.74 293.284 139.601 292.647 141.322C292.011 143.044 290.925 144.563 289.502 145.72C288.08 146.878 286.373 147.631 284.56 147.903Z" fill="white"/>
<path d="M187.712 162.533C185.971 162.522 184.26 162.078 182.734 161.24C181.207 160.402 179.913 159.197 178.967 157.733C178.021 156.269 177.454 154.592 177.316 152.854C177.179 151.116 177.475 149.371 178.179 147.776L214.582 65.3584C215.297 63.7395 216.409 62.3278 217.815 61.2545C219.22 60.1812 220.874 59.4812 222.622 59.2194C224.37 58.9577 226.156 59.1427 227.814 59.7574C229.471 60.372 230.947 61.3963 232.103 62.735L290.978 130.89C292.206 132.312 293.031 134.039 293.366 135.889C293.7 137.74 293.533 139.646 292.881 141.41C292.229 143.173 291.116 144.729 289.658 145.914C288.201 147.1 286.452 147.872 284.595 148.15L189.318 162.413C188.786 162.493 188.249 162.533 187.712 162.533ZM224.193 59.6012C223.692 59.6015 223.192 59.6389 222.697 59.7131C221.031 59.9581 219.454 60.6232 218.114 61.6459C216.775 62.6687 215.716 64.0156 215.039 65.5602L178.638 147.978C177.915 149.616 177.644 151.418 177.853 153.197C178.063 154.975 178.745 156.665 179.83 158.089C180.914 159.514 182.36 160.62 184.017 161.294C185.674 161.968 187.481 162.183 189.249 161.919L284.526 147.656C286.295 147.391 287.96 146.656 289.348 145.527C290.736 144.397 291.796 142.916 292.417 141.236C293.038 139.556 293.197 137.741 292.878 135.978C292.56 134.216 291.774 132.572 290.604 131.217L231.726 63.0616C230.793 61.9756 229.637 61.1042 228.337 60.5069C227.037 59.9097 225.624 59.6007 224.193 59.6012Z" fill="#0C0C0C"/>
<path d="M222.569 98.113L220.497 87.0586L232.807 85.2158L234.053 96.3935L236.161 122.235L228.1 123.442L222.569 98.113ZM226.602 136.577C225.948 132.197 228.599 128.346 232.855 127.709C237.11 127.072 240.772 129.977 241.425 134.358C242.074 138.71 239.423 142.56 235.166 143.198C230.909 143.836 227.251 140.931 226.602 136.577Z" fill="white"/>
<path d="M268.345 113.741C268.276 113.419 268.313 113.082 268.452 112.783C268.59 112.484 268.823 112.238 269.114 112.083C269.098 112.062 269.044 112.021 269.082 111.996L267.822 112.042C267.451 112.064 267.085 111.951 266.791 111.723C266.497 111.495 266.295 111.169 266.222 110.804C266.163 110.441 266.24 110.069 266.439 109.76C266.637 109.451 266.943 109.226 267.298 109.13C267.287 109.12 267.286 109.103 267.279 109.09L266.761 109.109C266.411 109.129 266.066 109.026 265.783 108.819C265.5 108.612 265.297 108.314 265.209 107.975C265.157 107.761 265.154 107.538 265.199 107.323C265.245 107.108 265.337 106.905 265.47 106.73C265.602 106.555 265.772 106.411 265.967 106.31C266.162 106.209 266.377 106.152 266.596 106.143L267.793 106.099C267.793 106.093 267.786 106.089 267.785 106.083C267.785 106.076 267.792 106.068 267.793 106.06C267.463 105.998 267.163 105.825 266.944 105.571C266.725 105.316 266.598 104.994 266.585 104.658C266.496 103.792 267.426 103.259 268.199 103.233L270.642 103.333C271.019 103.348 271.386 103.457 271.711 103.648C272.035 103.84 272.308 104.109 272.504 104.431C274.199 107.223 278.456 114.619 275.989 114.712L269.918 114.937C269.56 114.941 269.212 114.826 268.927 114.609C268.642 114.393 268.437 114.087 268.345 113.741Z" fill="#E98862"/>
<path d="M205.683 125.915C205.66 125.552 205.525 125.205 205.296 124.922C205.068 124.64 204.757 124.435 204.407 124.336C204.423 124.308 204.429 124.276 204.425 124.244C204.418 124.217 204.405 124.193 204.386 124.174C204.366 124.154 204.342 124.14 204.316 124.133L205.776 123.809C206.208 123.722 206.595 123.482 206.864 123.133C207.133 122.783 207.267 122.348 207.241 121.907C207.201 121.473 207.001 121.069 206.681 120.774C206.36 120.479 205.942 120.313 205.506 120.309C205.516 120.294 205.511 120.275 205.516 120.259L206.115 120.126C206.522 120.043 206.888 119.822 207.151 119.5C207.414 119.178 207.558 118.774 207.558 118.358C207.553 118.097 207.49 117.841 207.373 117.607C207.257 117.374 207.091 117.169 206.886 117.008C206.681 116.847 206.443 116.733 206.19 116.675C205.936 116.617 205.672 116.616 205.418 116.673L204.033 116.981C204.033 116.973 204.039 116.967 204.037 116.959C204.036 116.952 204.025 116.945 204.022 116.935C204.382 116.765 204.674 116.477 204.85 116.119C205.025 115.761 205.074 115.354 204.988 114.965C204.831 113.944 203.606 113.616 202.711 113.816L194.633 115.464L196.549 114.061C196.928 113.795 197.192 113.395 197.288 112.942C197.384 112.488 197.304 112.016 197.065 111.619C196.935 111.419 196.765 111.247 196.566 111.114C196.367 110.982 196.143 110.891 195.908 110.848C195.674 110.805 195.432 110.81 195.199 110.864C194.967 110.917 194.747 111.017 194.554 111.159L184.087 118.82C182.86 119.719 182.031 121.062 181.776 122.563C181.521 124.065 181.861 125.606 182.723 126.861C183.723 128.316 185.134 129.439 186.775 130.086C188.417 130.732 190.213 130.873 191.935 130.491L204.24 127.755C204.653 127.656 205.02 127.421 205.281 127.087C205.543 126.753 205.685 126.34 205.683 125.915Z" fill="#E98862"/>
<g opacity="0.25">
<path d="M196.039 118.608C196.049 118.649 196.074 118.685 196.11 118.708C196.145 118.731 196.189 118.739 196.23 118.731L203.909 117.153C203.93 117.149 203.95 117.14 203.968 117.128C203.985 117.116 204 117.101 204.012 117.083C204.024 117.065 204.032 117.046 204.036 117.025C204.04 117.004 204.04 116.982 204.035 116.961C204.031 116.94 204.023 116.921 204.011 116.903C203.999 116.885 203.984 116.87 203.966 116.858C203.948 116.847 203.928 116.838 203.907 116.834C203.886 116.83 203.865 116.831 203.844 116.835L196.165 118.412C196.123 118.421 196.086 118.446 196.062 118.482C196.038 118.518 196.03 118.562 196.039 118.604L196.039 118.608Z" fill="#0C0C0C"/>
</g>
<g opacity="0.25">
<path d="M196.641 122.018C196.65 122.059 196.675 122.095 196.711 122.118C196.747 122.141 196.79 122.149 196.832 122.141L205.403 120.38C205.445 120.371 205.482 120.346 205.506 120.31C205.53 120.274 205.538 120.23 205.53 120.188C205.52 120.146 205.494 120.11 205.459 120.087C205.423 120.063 205.38 120.054 205.338 120.061L196.766 121.822C196.724 121.831 196.687 121.856 196.663 121.892C196.64 121.928 196.631 121.972 196.64 122.014L196.641 122.018Z" fill="#0C0C0C"/>
</g>
<g opacity="0.25">
<path d="M197.271 125.717C197.28 125.758 197.306 125.794 197.341 125.817C197.377 125.84 197.42 125.848 197.461 125.84L204.299 124.435C204.341 124.427 204.378 124.401 204.402 124.366C204.426 124.33 204.434 124.286 204.425 124.243C204.417 124.201 204.392 124.164 204.356 124.141C204.32 124.117 204.276 124.108 204.234 124.117L197.396 125.521C197.375 125.526 197.355 125.534 197.338 125.546C197.32 125.558 197.305 125.573 197.293 125.591C197.282 125.609 197.274 125.629 197.27 125.65C197.265 125.671 197.266 125.692 197.27 125.713L197.271 125.717Z" fill="#0C0C0C"/>
</g>
<path d="M191.176 135.37L124.414 147.455C122.331 147.682 120.223 147.423 118.257 146.697C116.29 145.972 114.519 144.799 113.081 143.273C111.642 141.746 110.577 139.906 109.968 137.898C109.36 135.89 109.224 133.767 109.571 131.698L118.918 76.0581C119.204 74.2906 119.836 72.5971 120.778 71.0751C121.72 69.5531 122.953 68.2327 124.407 67.1898C125.86 66.1469 127.505 65.4021 129.247 64.9982C130.989 64.5943 132.793 64.5394 134.556 64.8365C136.32 65.1336 138.007 65.7769 139.521 66.7294C141.035 67.682 142.346 68.9249 143.378 70.3867C144.411 71.8486 145.145 73.5004 145.538 75.2474C145.931 76.9943 145.975 78.8017 145.667 80.5658L139.294 118.865L188.241 112.709L191.176 135.37Z" fill="#367CFF"/>
<path d="M124.413 147.701C124.354 147.696 124.299 147.671 124.257 147.629C124.215 147.588 124.189 147.533 124.184 147.474C124.178 147.415 124.194 147.356 124.228 147.307C124.263 147.259 124.313 147.224 124.37 147.21L190.901 135.169L188.027 112.985L139.325 119.111C139.287 119.116 139.248 119.112 139.212 119.099C139.175 119.086 139.142 119.065 139.116 119.037C139.089 119.009 139.07 118.976 139.058 118.939C139.047 118.902 139.044 118.863 139.05 118.825L143.102 94.3455C143.12 94.288 143.158 94.239 143.209 94.2074C143.26 94.1759 143.321 94.1639 143.38 94.1738C143.44 94.1836 143.493 94.2146 143.532 94.261C143.57 94.3075 143.59 94.3662 143.589 94.4264L139.592 118.579L188.209 112.463C188.274 112.456 188.339 112.474 188.391 112.514C188.443 112.554 188.477 112.612 188.486 112.677L191.421 135.338C191.429 135.401 191.412 135.464 191.375 135.515C191.338 135.566 191.283 135.601 191.222 135.614L124.46 147.699C124.444 147.701 124.429 147.701 124.413 147.701Z" fill="#0C0C0C"/>
<path d="M139.256 118.621L134.961 119.31L135.039 119.799L139.334 119.11L139.256 118.621Z" fill="#0C0C0C"/>
<path d="M276.968 380.097H56.8339C56.7317 380.097 56.6337 380.057 56.5614 379.984C56.4891 379.912 56.4485 379.814 56.4485 379.711C56.4485 379.609 56.4891 379.511 56.5614 379.438C56.6337 379.366 56.7317 379.325 56.8339 379.325H276.968C277.07 379.325 277.168 379.366 277.241 379.438C277.313 379.511 277.354 379.609 277.354 379.711C277.354 379.814 277.313 379.912 277.241 379.984C277.168 380.057 277.07 380.097 276.968 380.097Z" fill="#3F3F3F"/>
<path d="M71.4307 258.208L6.8565 258.165C5.62803 258.164 4.42236 257.833 3.36536 257.206C2.30837 256.579 1.43879 255.679 0.847429 254.601C0.256063 253.522 -0.0354119 252.305 0.00343212 251.075C0.0422761 249.845 0.410015 248.648 1.06826 247.61L33.3893 196.606C34.0091 195.628 34.8656 194.823 35.8794 194.265C36.8931 193.708 38.0311 193.416 39.1877 193.417C40.3442 193.417 41.4818 193.711 42.4948 194.27C43.5078 194.829 44.3632 195.635 44.9817 196.614L77.2344 247.661C77.8912 248.701 78.2573 249.898 78.2944 251.128C78.3316 252.358 78.0383 253.575 77.4454 254.653C76.8524 255.73 75.9815 256.629 74.9235 257.254C73.8655 257.88 72.6592 258.209 71.4307 258.208Z" fill="#F4F4F4"/>
<path d="M34.1398 244.926C34.1398 241.956 36.2839 239.669 39.1671 239.671C42.0502 239.673 44.1894 241.963 44.1874 244.933C44.1874 247.882 42.0433 250.169 39.1606 250.167C36.278 250.165 34.1378 247.875 34.1398 244.926ZM35.2896 219.026L35.0149 211.493L43.3577 211.499L43.0715 219.032L41.9006 236.372L36.4395 236.368L35.2896 219.026Z" fill="white"/>
<path d="M96.647 90.798L44.677 90.7631C43.6882 90.7624 42.7177 90.4958 41.8669 89.9913C41.0161 89.4867 40.3161 88.7627 39.84 87.8947C39.364 87.0267 39.1294 86.0466 39.1606 85.0568C39.1918 84.067 39.4878 83.1038 40.0177 82.2676L66.0303 41.2194C66.5291 40.4322 67.2184 39.7841 68.0342 39.3352C68.8501 38.8863 69.7659 38.6513 70.6968 38.6519C71.6276 38.6525 72.5432 38.8887 73.3585 39.3386C74.1737 39.7885 74.8622 40.4376 75.3599 41.2254L101.317 82.3091C101.846 83.1459 102.141 84.1095 102.171 85.0993C102.201 86.0892 101.965 87.0689 101.488 87.9363C101.011 88.8036 100.31 89.5268 99.4581 90.0301C98.6066 90.5335 97.6358 90.7987 96.647 90.798Z" fill="#F4F4F4"/>
<path d="M66.6357 80.1091C66.6683 79.3153 66.9331 78.5485 67.3973 77.9043C67.8615 77.26 68.5046 76.7666 69.2466 76.4854C69.9886 76.2043 70.7967 76.1478 71.5705 76.323C72.3442 76.4982 73.0495 76.8973 73.5986 77.4708C74.1476 78.0443 74.5163 78.7667 74.6586 79.5484C74.801 80.33 74.7107 81.1363 74.3991 81.8669C74.0876 82.5976 73.5684 83.2204 72.9062 83.6579C72.244 84.0954 71.468 84.3283 70.6747 84.3276C70.1299 84.3267 69.5908 84.2156 69.0898 84.001C68.5888 83.7865 68.1362 83.4729 67.7591 83.079C67.382 82.6851 67.0881 82.2191 66.8951 81.7088C66.7021 81.1985 66.6138 80.6544 66.6357 80.1091ZM67.5612 59.2679L67.3393 53.2051L74.053 53.2101L73.8241 59.2719L72.8822 73.2263L68.4847 73.2233L67.5612 59.2679Z" fill="white"/>
<path d="M307.968 306.388L251.255 306.349C250.175 306.349 249.116 306.058 248.187 305.508C247.259 304.957 246.494 304.167 245.975 303.22C245.455 302.273 245.199 301.203 245.233 300.123C245.267 299.042 245.59 297.991 246.168 297.078L274.556 252.282C275.101 251.423 275.853 250.715 276.743 250.226C277.634 249.736 278.633 249.479 279.649 249.48C280.665 249.481 281.664 249.739 282.554 250.23C283.444 250.721 284.195 251.429 284.738 252.289L313.066 297.123C313.643 298.036 313.964 299.088 313.997 300.168C314.03 301.249 313.772 302.318 313.251 303.265C312.731 304.211 311.966 305 311.036 305.55C310.107 306.099 309.047 306.389 307.968 306.388Z" fill="#F4F4F4"/>
<path d="M275.218 294.724C275.218 292.116 277.1 290.107 279.633 290.109C282.167 290.111 284.043 292.122 284.042 294.73C284.061 295.323 283.961 295.913 283.748 296.467C283.535 297.02 283.213 297.525 282.801 297.951C282.389 298.378 281.895 298.716 281.35 298.948C280.804 299.179 280.218 299.298 279.626 299.298C279.033 299.297 278.447 299.177 277.902 298.945C277.357 298.713 276.864 298.374 276.452 297.947C276.041 297.52 275.719 297.015 275.507 296.461C275.294 295.908 275.195 295.317 275.216 294.724H275.218ZM276.228 271.978L275.986 265.362L283.313 265.367L283.064 271.983L282.035 287.212L277.234 287.208L276.228 271.978Z" fill="white"/>
</svg>
